<svg width="377" height="36" viewBox="0 0 377 36" fill="none" xmlns="http://www.w3.org/2000/svg">
<path d="M11.976 23.024H5.688L4.68 26H0.384L6.48 9.152H11.232L17.328 26H12.984L11.976 23.024ZM10.92 19.856L8.832 13.688L6.768 19.856H10.92ZM23.2873 14.504C23.6713 13.88 24.2233 13.376 24.9433 12.992C25.6633 12.608 26.4873 12.416 27.4153 12.416C28.5193 12.416 29.5193 12.696 30.4153 13.256C31.3113 13.816 32.0153 14.616 32.5273 15.656C33.0553 16.696 33.3193 17.904 33.3193 19.28C33.3193 20.656 33.0553 21.872 32.5273 22.928C32.0153 23.968 31.3113 24.776 30.4153 25.352C29.5193 25.912 28.5193 26.192 27.4153 26.192C26.4713 26.192 25.6473 26.008 24.9433 25.64C24.2393 25.256 23.6873 24.752 23.2873 24.128V26H19.1833V8.24H23.2873V14.504ZM29.1433 19.28C29.1433 18.256 28.8553 17.456 28.2793 16.88C27.7193 16.288 27.0233 15.992 26.1913 15.992C25.3753 15.992 24.6793 16.288 24.1033 16.88C23.5433 17.472 23.2633 18.28 23.2633 19.304C23.2633 20.328 23.5433 21.136 24.1033 21.728C24.6793 22.32 25.3753 22.616 26.1913 22.616C27.0073 22.616 27.7033 22.32 28.2793 21.728C28.8553 21.12 29.1433 20.304 29.1433 19.28ZM41.5684 26.192C40.2564 26.192 39.0724 25.912 38.0164 25.352C36.9764 24.792 36.1524 23.992 35.5444 22.952C34.9524 21.912 34.6564 20.696 34.6564 19.304C34.6564 17.928 34.9604 16.72 35.5684 15.68C36.1764 14.624 37.0084 13.816 38.0644 13.256C39.1204 12.696 40.3044 12.416 41.6164 12.416C42.9284 12.416 44.1124 12.696 45.1684 13.256C46.2244 13.816 47.0564 14.624 47.6644 15.68C48.2724 16.72 48.5764 17.928 48.5764 19.304C48.5764 20.68 48.2644 21.896 47.6404 22.952C47.0324 23.992 46.1924 24.792 45.1204 25.352C44.0644 25.912 42.8804 26.192 41.5684 26.192ZM41.5684 22.64C42.3524 22.64 43.0164 22.352 43.5604 21.776C44.1204 21.2 44.4004 20.376 44.4004 19.304C44.4004 18.232 44.1284 17.408 43.5844 16.832C43.0564 16.256 42.4004 15.968 41.6164 15.968C40.8164 15.968 40.1524 16.256 39.6244 16.832C39.0964 17.392 38.8324 18.216 38.8324 19.304C38.8324 20.376 39.0884 21.2 39.6004 21.776C40.1284 22.352 40.7844 22.64 41.5684 22.64ZM63.9776 12.608V26H59.8736V24.176C59.4576 24.768 58.8896 25.248 58.1696 25.616C57.4656 25.968 56.6816 26.144 55.8176 26.144C54.7936 26.144 53.8896 25.92 53.1056 25.472C52.3216 25.008 51.7136 24.344 51.2816 23.48C50.8496 22.616 50.6336 21.6 50.6336 20.432V12.608H54.7136V19.88C54.7136 20.776 54.9456 21.472 55.4096 21.968C55.8736 22.464 56.4976 22.712 57.2816 22.712C58.0816 22.712 58.7136 22.464 59.1776 21.968C59.6416 21.472 59.8736 20.776 59.8736 19.88V12.608H63.9776ZM74.3895 22.52V26H72.3015C70.8135 26 69.6535 25.64 68.8215 24.92C67.9895 24.184 67.5735 22.992 67.5735 21.344V16.016H65.9415V12.608H67.5735V9.344H71.6775V12.608H74.3655V16.016H71.6775V21.392C71.6775 21.792 71.7735 22.08 71.9655 22.256C72.1575 22.432 72.4775 22.52 72.9255 22.52H74.3895Z" fill="#FFF9E4"/>
<path d="M361.397 10.5853V6C361.397 3.79086 363.188 2 365.397 2H375.362C376.266 2 377 2.73361 377 3.63855C377 4.5435 376.266 5.27711 375.362 5.27711H368.28C366.854 5.27711 365.698 6.43301 365.698 7.85889C365.698 9.28477 366.854 10.4407 368.28 10.4407H373C375.209 10.4407 377 12.2315 377 14.4407V22C377 24.2091 375.209 26 373 26H363.663C362.412 26 361.397 24.9859 361.397 23.7349C361.397 22.484 362.412 21.4699 363.663 21.4699H368.857C370.758 21.4699 372.299 19.9287 372.299 18.0276C372.299 16.1264 370.758 14.5853 368.857 14.5853H365.397C363.188 14.5853 361.397 12.7944 361.397 10.5853Z" fill="#FFF9E4"/>
<path fill-rule="evenodd" clip-rule="evenodd" d="M341.461 4.15247V23.8475V24.0165C341.461 25.112 342.52 26 343.825 26L343.972 26H352.132L352.572 26C356.489 26 359.664 23.3359 359.664 20.0496V19.5426V8.4574V7.95041C359.664 4.66409 356.489 2 352.572 2H352.132H343.972H343.825C342.52 2 341.461 2.88803 341.461 3.98347V4.15247ZM350.877 7.16592C348.668 7.16592 346.86 8.95678 346.86 11.1659V16.6188C346.86 18.828 348.668 20.6188 350.877 20.6188C353.086 20.6188 354.894 18.828 354.894 16.6188V11.1659C354.894 8.95678 353.086 7.16592 350.877 7.16592Z" fill="#FFF9E4"/>
<path d="M169.33 18.3243V8.79049C169.33 7.21313 168.051 5.93443 166.474 5.93443H165.585C164.498 5.93443 163.618 5.05367 163.618 3.96721C163.618 2.88075 164.498 2 165.585 2H180.113C181.199 2 182.08 2.88075 182.08 3.96721C182.08 5.05367 181.199 5.93443 180.113 5.93443H178.663C176.776 5.93443 175.246 7.4643 175.246 9.3515V17.7633C175.246 19.6504 176.776 21.1803 178.663 21.1803H179.67C181.001 21.1803 182.08 22.2592 182.08 23.5902C182.08 24.9211 181.001 26 179.67 26H166.028C164.697 26 163.618 24.9211 163.618 23.5902C163.618 22.2592 164.697 21.1803 166.028 21.1803H166.474C168.051 21.1803 169.33 19.9016 169.33 18.3243Z" fill="#FFF9E4"/>
<path d="M289.016 18.3644V8.75037C289.016 7.19517 287.755 5.93443 286.2 5.93443H285.351C284.265 5.93443 283.384 5.05367 283.384 3.96721C283.384 2.88075 284.265 2 285.351 2H299.62C300.706 2 301.587 2.88075 301.587 3.96721C301.587 5.05367 300.706 5.93443 299.62 5.93443H298.218C296.357 5.93443 294.849 7.44281 294.849 9.3035V17.8113C294.849 19.6719 296.357 21.1803 298.218 21.1803H299.177C300.508 21.1803 301.587 22.2592 301.587 23.5902C301.587 24.9211 300.508 26 299.177 26H285.794C284.463 26 283.384 24.9211 283.384 23.5902C283.384 22.2592 284.463 21.1803 285.794 21.1803H286.2C287.755 21.1803 289.016 19.9196 289.016 18.3644Z" fill="#FFF9E4"/>
<path d="M191.506 16.8523V22.9104C191.506 24.6167 190.123 26 188.416 26C186.71 26 185.327 24.6167 185.327 22.9104V4.8035C185.327 3.25517 186.582 2 188.13 2C189.021 2 189.859 2.42326 190.387 3.14028L197.014 12.1327C198.159 13.6868 200.624 12.8767 200.624 10.9461V4.90124C200.624 3.29893 201.923 2 203.525 2C205.128 2 206.427 3.29893 206.427 4.90124V23.5017C206.427 24.8815 205.308 26 203.928 26C203.13 26 202.381 25.619 201.91 24.9746L195.121 15.6732C193.98 14.1101 191.506 14.9171 191.506 16.8523Z" fill="#FFF9E4"/>
<path d="M325.016 16.923V22.9538C325.016 24.6362 323.652 26 321.97 26C320.287 26 318.923 24.6362 318.923 22.9538V4.75635C318.923 3.23406 320.157 2 321.68 2C322.562 2 323.391 2.42235 323.91 3.1361L330.388 12.0519C331.527 13.6192 334.006 12.8137 334.006 10.8763V4.86048C334.006 3.28068 335.287 2 336.866 2C338.446 2 339.727 3.28068 339.727 4.86048V23.5437C339.727 24.9003 338.627 26 337.271 26C336.48 26 335.738 25.6198 335.277 24.9784L328.639 15.7548C327.505 14.1784 325.016 14.9809 325.016 16.923Z" fill="#FFF9E4"/>
<path d="M147.184 22V4.71219C147.184 3.21429 148.398 2 149.896 2C151.394 2 152.608 3.21429 152.608 4.71219V16.072C152.608 18.2157 154.346 19.9535 156.49 19.9535H157.348C159.018 19.9535 160.372 21.307 160.372 22.9767C160.372 24.6464 159.018 26 157.348 26H151.184C148.975 26 147.184 24.2091 147.184 22Z" fill="#FFF9E4"/>
<path d="M111.071 6V22C111.071 24.2091 112.862 26 115.071 26H123.329C124.534 26 125.511 25.0232 125.511 23.8182C125.511 22.6132 124.534 21.6364 123.329 21.6364H119.967C118.325 21.6364 116.995 20.3059 116.995 18.6646C116.995 17.0234 118.325 15.6929 119.967 15.6929H121.148C122.399 15.6929 123.413 14.679 123.413 13.4283C123.413 12.1776 122.399 11.1636 121.148 11.1636H119.177C117.972 11.1636 116.995 10.1868 116.995 8.98182C116.995 7.77683 117.972 6.8 119.177 6.8H123.481C124.807 6.8 125.881 5.72548 125.881 4.4C125.881 3.07452 124.807 2 123.481 2H115.071C112.862 2 111.071 3.79086 111.071 6Z" fill="#FFF9E4"/>
<path d="M129.127 6V22C129.127 24.2091 130.918 26 133.127 26H141.386C142.591 26 143.568 25.0232 143.568 23.8182C143.568 22.6132 142.591 21.6364 141.386 21.6364H138.023C136.382 21.6364 135.052 20.3059 135.052 18.6646C135.052 17.0234 136.382 15.6929 138.023 15.6929H139.205C140.456 15.6929 141.47 14.679 141.47 13.4283C141.47 12.1776 140.456 11.1636 139.205 11.1636H137.233C136.028 11.1636 135.052 10.1868 135.052 8.98182C135.052 7.77683 136.028 6.8 137.233 6.8H141.538C142.863 6.8 143.938 5.72548 143.938 4.4C143.938 3.07452 142.863 2 141.538 2H133.127C130.918 2 129.127 3.79086 129.127 6Z" fill="#FFF9E4"/>
<path d="M303.321 6V22C303.321 24.2091 305.112 26 307.321 26H314.662C315.867 26 316.844 25.0232 316.844 23.8182C316.844 22.6132 315.867 21.6364 314.662 21.6364H311.841C310.199 21.6364 308.869 20.3059 308.869 18.6646C308.869 17.0234 310.199 15.6929 311.841 15.6929H312.614C313.865 15.6929 314.879 14.679 314.879 13.4283C314.879 12.1776 313.865 11.1636 312.614 11.1636H311.051C309.846 11.1636 308.869 10.1868 308.869 8.98182C308.869 7.77683 309.846 6.8 311.051 6.8H314.79C316.116 6.8 317.19 5.72548 317.19 4.4C317.19 3.07452 316.116 2 314.79 2H307.321C305.112 2 303.321 3.79086 303.321 6Z" fill="#FFF9E4"/>
<path d="M242.645 6V23.0495C242.645 24.679 243.966 26 245.595 26C247.225 26 248.546 24.679 248.546 23.0495V19.2841C248.546 17.075 250.336 15.2841 252.546 15.2841H255.723C257.117 15.2841 258.247 14.1541 258.247 12.7601C258.247 11.3662 257.117 10.2362 255.723 10.2362H249.653C249.041 10.2362 248.546 9.74054 248.546 9.12915C248.546 8.51777 249.041 8.02214 249.653 8.02214H252.736C254.399 8.02214 255.747 6.67404 255.747 5.01107C255.747 3.3481 254.399 2 252.736 2H246.645C244.435 2 242.645 3.79086 242.645 6Z" fill="#FFF9E4"/>
<path d="M92 6V23.0075C92 24.6602 93.3398 26 94.9925 26C96.6453 26 97.9851 24.6602 97.9851 23.0075V19.2841C97.9851 17.075 99.7759 15.2841 101.985 15.2841H105.301C106.695 15.2841 107.825 14.1541 107.825 12.7601C107.825 11.3662 106.695 10.2362 105.301 10.2362L99.0921 10.2362C98.4807 10.2362 97.9851 9.74054 97.9851 9.12915C97.9851 8.51777 98.4807 8.02214 99.0921 8.02214H102.278C103.941 8.02214 105.289 6.67404 105.289 5.01107C105.289 3.3481 103.941 2 102.278 2L96 2C93.7909 2 92 3.79086 92 6Z" fill="#FFF9E4"/>
<path d="M213.673 2H221.252C222.869 2 224.179 3.31039 224.179 4.92683C224.179 6.54327 222.869 7.85366 221.252 7.85366H219.354C217.144 7.85366 215.354 9.64452 215.354 11.8537V17.232C215.354 19.1648 216.92 20.7317 218.853 20.7317H220.548C221.545 20.7317 222.353 19.9087 222.353 18.9119C222.353 17.9314 221.558 17.122 220.578 17.122C219.597 17.122 218.803 16.3272 218.803 15.3467V14.5366C218.803 13.1087 219.96 11.9512 221.388 11.9512H222.918C225.127 11.9512 226.918 13.7421 226.918 15.9512V22C226.918 24.2091 225.127 26 222.918 26H213.673C211.464 26 209.673 24.2091 209.673 22V6C209.673 3.79086 211.464 2 213.673 2Z" fill="#FFF9E4"/>
<path fill-rule="evenodd" clip-rule="evenodd" d="M259.98 23.0709V5.77953C259.98 3.69215 261.802 2 264.05 2H273.512C276.883 2 279.616 4.53823 279.616 7.66929V10.4076C279.616 12.7047 277.611 14.5669 275.137 14.5669C273.896 14.5669 273.197 15.8931 273.959 16.804L278.527 22.265C279.799 23.7857 278.632 26 276.558 26C275.734 26 274.963 25.6218 274.499 24.9896L270.004 18.8697C268.876 17.3337 266.288 18.0753 266.288 19.9347V23.0709C266.288 24.6886 264.876 26 263.134 26C261.393 26 259.98 24.6886 259.98 23.0709ZM273.41 8.56693C273.41 10.4195 271.908 11.9213 270.056 11.9213H269.643C267.79 11.9213 266.288 10.4195 266.288 8.56693C266.288 6.71438 267.79 5.2126 269.643 5.2126H270.056C271.908 5.2126 273.41 6.71438 273.41 8.56693Z" fill="#FFF9E4"/>
</svg>
