<svg width="898" height="79" viewBox="0 0 898 79" fill="none" xmlns="http://www.w3.org/2000/svg">
<path d="M847.529 28.7947V14.6153C847.529 7.64808 853.177 2 860.145 2H890.869C893.703 2 896 4.29725 896 7.13105C896 9.96485 893.703 12.2621 890.869 12.2621H868.975C864.509 12.2621 860.89 15.8817 860.89 20.3468C860.89 24.8119 864.509 28.4315 868.975 28.4315H883.385C890.352 28.4315 896 34.0796 896 41.0469V64.5394C896 71.5067 890.352 77.1548 883.385 77.1548H854.622C850.705 77.1548 847.529 73.9791 847.529 70.0618C847.529 66.1445 850.705 62.9689 854.622 62.9689H870.617C876.571 62.9689 881.397 58.1428 881.397 52.1895C881.397 46.2362 876.571 41.4101 870.617 41.4101H860.145C853.177 41.4101 847.529 35.762 847.529 28.7947Z" fill="#52B85A" stroke="#1C1125" stroke-opacity="0.75" stroke-width="2.39504"/>
<path fill-rule="evenodd" clip-rule="evenodd" d="M785.594 8.74034V70.4144V70.9436C785.594 74.3739 788.882 77.1548 792.938 77.1548L793.394 77.1548H818.743L820.111 77.1548C832.279 77.1548 842.143 68.8123 842.143 58.5213V56.9337V22.221V20.6334C842.143 10.3425 832.279 2 820.111 2H818.743H793.394H792.938C788.882 2 785.594 4.78082 785.594 8.21114V8.74034ZM808.671 18.1768C805.188 18.1768 802.363 21.0009 802.363 24.4845V53.9962C802.363 57.4799 805.188 60.3039 808.671 60.3039H814.708C821.675 60.3039 827.323 54.6558 827.323 47.6886V30.7922C827.323 23.8249 821.675 18.1768 814.708 18.1768H808.671Z" fill="#3DA4DE"/>
<path d="M785.594 8.74034V70.4144M785.594 8.74034C785.594 5.01775 789.086 2 793.394 2M785.594 8.74034V8.21114M785.594 70.4144C785.594 74.137 789.086 77.1548 793.394 77.1548M785.594 70.4144V70.9436M793.394 77.1548H818.743L820.111 77.1548M793.394 77.1548L792.938 77.1548M793.394 2H818.743H820.111M793.394 2H792.938M785.594 8.21114C785.594 4.78082 788.882 2 792.938 2M785.594 8.21114V8.21114C785.594 4.78082 788.375 2 791.805 2H792.938M820.111 2C832.279 2 842.143 10.3425 842.143 20.6334M820.111 2H823.509C833.8 2 842.143 10.3425 842.143 20.6334V20.6334M842.143 20.6334V22.221V56.9337V58.5213M842.143 58.5213C842.143 68.8123 832.279 77.1548 820.111 77.1548M842.143 58.5213V58.5213C842.143 68.8123 833.8 77.1548 823.509 77.1548L820.111 77.1548M792.938 77.1548C788.882 77.1548 785.594 74.3739 785.594 70.9436M792.938 77.1548L791.805 77.1548C788.375 77.1548 785.594 74.3739 785.594 70.9436V70.9436M827.323 47.6886V30.7922C827.323 23.8249 821.675 18.1768 814.708 18.1768H808.671C805.188 18.1768 802.363 21.0009 802.363 24.4845V53.9962C802.363 57.4799 805.188 60.3039 808.671 60.3039H814.708C821.675 60.3039 827.323 54.6558 827.323 47.6886Z" stroke="#1C1125" stroke-opacity="0.75" stroke-width="2.39504"/>
<path d="M242.231 53.376V23.2313C242.231 18.3311 238.259 14.3587 233.359 14.3587H230.666C227.253 14.3587 224.486 11.5921 224.486 8.17934C224.486 4.76659 227.253 2 230.666 2H275.662C279.075 2 281.841 4.76659 281.841 8.17934C281.841 11.5921 279.075 14.3587 275.662 14.3587H271.226C265.363 14.3587 260.61 19.1114 260.61 24.9741V51.6332C260.61 57.4959 265.363 62.2486 271.226 62.2486H274.271C278.452 62.2486 281.841 65.6377 281.841 69.8183C281.841 73.9989 278.452 77.388 274.271 77.388H232.056C227.875 77.388 224.486 73.9989 224.486 69.8183C224.486 65.6377 227.875 62.2486 232.056 62.2486H233.359C238.259 62.2486 242.231 58.2762 242.231 53.376Z" fill="#3DA4DE" stroke="#1C1125" stroke-opacity="0.75" stroke-width="2.39504"/>
<path d="M622.671 53.3143V23.0684C622.671 18.237 618.755 14.3205 613.923 14.3205H611.336C607.933 14.3205 605.175 11.5624 605.175 8.16023C605.175 4.75803 607.933 2 611.336 2H655.564C658.966 2 661.724 4.75803 661.724 8.16023C661.724 11.5624 658.966 14.3205 655.564 14.3205H651.258C645.478 14.3205 640.792 19.0064 640.792 24.7867V51.5959C640.792 57.3763 645.478 62.0622 651.258 62.0622H654.178C658.346 62.0622 661.724 65.4408 661.724 69.6085C661.724 73.7762 658.346 77.1548 654.178 77.1548H612.722C608.554 77.1548 605.175 73.7762 605.175 69.6085C605.175 65.4408 608.554 62.0622 612.722 62.0622H613.923C618.755 62.0622 622.671 58.1456 622.671 53.3143Z" fill="#52B85A" stroke="#1C1125" stroke-opacity="0.75" stroke-width="2.39504"/>
<path d="M311.123 47.9151V67.7898C311.123 73.0907 306.826 77.388 301.525 77.388C296.224 77.388 291.927 73.0907 291.927 67.7898V10.6901C291.927 5.89069 295.817 2 300.617 2C303.394 2 306.004 3.32732 307.64 5.57159L328.623 34.3613C332.037 39.045 339.449 36.6303 339.449 30.8346V11.0129C339.449 6.03522 343.485 2 348.462 2C353.44 2 357.475 6.03522 357.475 11.0129V69.6438C357.475 73.9208 354.008 77.388 349.731 77.388C347.244 77.388 344.908 76.1932 343.452 74.1764L321.966 44.4106C318.565 39.7 311.123 42.1054 311.123 47.9151Z" fill="#52B85A" stroke="#1C1125" stroke-opacity="0.75" stroke-width="2.39504"/>
<path d="M734.507 47.9974V67.6914C734.507 72.9179 730.27 77.1548 725.043 77.1548C719.817 77.1548 715.58 72.9179 715.58 67.6914V10.5493C715.58 5.82764 719.408 2 724.129 2C726.877 2 729.458 3.32089 731.065 5.55005L751.59 34.0246C754.989 38.7391 762.435 36.335 762.435 30.5233V10.8863C762.435 5.97853 766.414 2 771.321 2C776.229 2 780.208 5.97852 780.208 10.8863V69.536C780.208 73.7437 776.797 77.1548 772.589 77.1548C770.128 77.1548 767.818 75.9659 766.388 73.9628L745.367 44.5184C741.983 39.777 734.507 42.1717 734.507 47.9974Z" fill="#F46B1E" stroke="#1C1125" stroke-opacity="0.75" stroke-width="2.39504"/>
<path d="M173.434 64.7726V10.4256C173.434 5.77228 177.206 2 181.86 2C186.513 2 190.285 5.77228 190.285 10.4256V46.3366C190.285 52.9962 195.684 58.3949 202.344 58.3949H204.905C210.15 58.3949 214.402 62.6466 214.402 67.8914C214.402 73.1362 210.15 77.388 204.905 77.388H186.049C179.082 77.388 173.434 71.7399 173.434 64.7726Z" fill="#F46B1E" stroke="#1C1125" stroke-opacity="0.75" stroke-width="2.39504"/>
<path d="M61.2466 20.923V58.465C61.2466 68.9159 69.7187 77.388 80.1696 77.388H99.2528C103.038 77.388 106.106 74.3196 106.106 70.5345C106.106 66.7495 103.038 63.6811 99.2528 63.6811H88.9852C83.8298 63.6811 79.6506 59.5018 79.6506 54.3464C79.6506 49.191 83.8298 45.0118 88.9852 45.0118H92.4746C96.4033 45.0118 99.5882 41.8269 99.5882 37.8981C99.5882 33.9694 96.4033 30.7845 92.4746 30.7845H86.504C82.719 30.7845 79.6506 27.7161 79.6506 23.9311C79.6506 20.146 82.719 17.0776 86.504 17.0776H99.7177C103.881 17.0776 107.257 13.7024 107.257 9.5388C107.257 5.37523 103.881 2 99.7177 2H80.1696C69.7187 2 61.2466 10.4721 61.2466 20.923Z" fill="#52B85A" stroke="#1C1125" stroke-opacity="0.75" stroke-width="2.39504"/>
<path d="M117.34 20.923V58.465C117.34 68.9159 125.812 77.388 136.263 77.388H155.347C159.132 77.388 162.2 74.3196 162.2 70.5345C162.2 66.7495 159.132 63.6811 155.347 63.6811H145.079C139.924 63.6811 135.744 59.5018 135.744 54.3464C135.744 49.191 139.924 45.0118 145.079 45.0118H148.568C152.497 45.0118 155.682 41.8269 155.682 37.8981C155.682 33.9694 152.497 30.7845 148.568 30.7845H142.598C138.813 30.7845 135.744 27.7161 135.744 23.9311C135.744 20.146 138.813 17.0776 142.598 17.0776H155.811C159.975 17.0776 163.35 13.7024 163.35 9.5388C163.35 5.37523 159.975 2 155.811 2H136.263C125.812 2 117.34 10.4721 117.34 20.923Z" fill="#F5D73A" stroke="#1C1125" stroke-opacity="0.75" stroke-width="2.39504"/>
<path d="M667.11 20.923V58.2317C667.11 68.6826 675.582 77.1548 686.033 77.1548H702.286C706.059 77.1548 709.118 74.0959 709.118 70.3225C709.118 66.5492 706.059 63.4903 702.286 63.4903H693.65C688.51 63.4903 684.344 59.3239 684.344 54.1845C684.344 49.045 688.51 44.8787 693.65 44.8787H695.922C699.839 44.8787 703.014 41.7037 703.014 37.7871C703.014 33.8705 699.839 30.6955 695.922 30.6955H691.176C687.403 30.6955 684.344 27.6365 684.344 23.8632C684.344 20.0899 687.403 17.031 691.176 17.031H702.679C706.83 17.031 710.195 13.6662 710.195 9.51548C710.195 5.36479 706.83 2 702.679 2H686.033C675.582 2 667.11 10.4721 667.11 20.923Z" fill="#F5D73A" stroke="#1C1125" stroke-opacity="0.75" stroke-width="2.39504"/>
<path d="M478.613 14.6153V67.9888C478.613 73.051 482.717 77.1548 487.779 77.1548C492.841 77.1548 496.945 73.051 496.945 67.9888V56.2139C496.945 49.2467 502.593 43.5986 509.56 43.5986H519.18C523.545 43.5986 527.084 40.06 527.084 35.6948C527.084 31.3297 523.545 27.7911 519.18 27.7911H500.412C498.497 27.7911 496.945 26.2391 496.945 24.3246C496.945 22.41 498.497 20.858 500.412 20.858H509.887C515.095 20.858 519.316 16.6365 519.316 11.429C519.316 6.22151 515.095 2 509.887 2H491.229C484.261 2 478.613 7.64808 478.613 14.6153Z" fill="#F46B1E" stroke="#1C1125" stroke-opacity="0.75" stroke-width="2.39504"/>
<path d="M2 14.6153L2 68.0915C2 73.2258 6.1622 77.388 11.2965 77.388C16.4309 77.388 20.5931 73.2258 20.5931 68.0915V56.343C20.5931 49.3758 26.2412 43.7277 33.2084 43.7277L43.2331 43.7277C47.6117 43.7277 51.1613 40.1781 51.1613 35.7994C51.1613 31.4208 47.6117 27.8712 43.2331 27.8712H24.0704C22.1499 27.8712 20.5931 26.3143 20.5931 24.3939C20.5931 22.4734 22.1499 20.9165 24.0704 20.9165H33.8246C39.0483 20.9165 43.2829 16.6819 43.2829 11.4583C43.2829 6.23461 39.0483 2 33.8246 2L14.6153 2C7.64808 2 2 7.64809 2 14.6153Z" fill="#3DA4DE" stroke="#1C1125" stroke-opacity="0.75" stroke-width="2.39504"/>
<path d="M380.174 2H403.43C408.507 2 412.624 6.11614 412.624 11.1937C412.624 16.2712 408.507 20.3873 403.43 20.3873H397.822C390.855 20.3873 385.207 26.0354 385.207 33.0026V49.9672C385.207 55.9718 390.074 60.8394 396.079 60.8394H401.282C404.413 60.8394 406.951 58.3011 406.951 55.17V55.0155C406.951 51.9697 404.482 49.5006 401.436 49.5006C398.39 49.5006 395.921 47.0315 395.921 43.9857V41.3795C395.921 36.8944 399.557 33.2584 404.042 33.2584H408.527C415.489 33.2584 421.132 38.9021 421.132 45.8639V64.7726C421.132 71.7399 415.484 77.388 408.517 77.388H380.174C373.207 77.388 367.559 71.7399 367.559 64.7726V14.6153C367.559 7.64808 373.207 2 380.174 2Z" fill="#F5D73A" stroke="#1C1125" stroke-opacity="0.75" stroke-width="2.39504"/>
<path fill-rule="evenodd" clip-rule="evenodd" d="M532.47 67.9823V13.8354C532.47 7.29889 538.13 2 545.113 2H574.506C584.979 2 593.469 9.94833 593.469 19.7531V28.3278C593.469 35.5213 587.24 41.3527 579.557 41.3527C575.699 41.3527 573.527 45.5057 575.894 48.3578L590.085 65.4586C594.037 70.2208 590.411 77.1548 583.97 77.1548C581.41 77.1548 579.016 75.9705 577.573 73.9908L563.609 54.8266C560.104 50.0167 552.066 52.3389 552.066 58.1614V67.9823C552.066 73.0481 547.679 77.1548 542.268 77.1548C536.857 77.1548 532.47 73.0481 532.47 67.9823ZM574.19 22.564C574.19 28.3651 569.487 33.0679 563.686 33.0679H558.373C554.89 33.0679 552.066 30.2439 552.066 26.7602V18.3678C552.066 14.8841 554.89 12.0601 558.373 12.0601H563.686C569.487 12.0601 574.19 16.7628 574.19 22.564V22.564Z" fill="#3DA4DE"/>
<path d="M532.47 13.8354V67.9823M532.47 13.8354C532.47 7.29889 538.13 2 545.113 2M532.47 13.8354V13.8354C532.47 7.29889 537.769 2 544.306 2H545.113M532.47 67.9823C532.47 73.0481 536.857 77.1548 542.268 77.1548M532.47 67.9823V67.9823C532.47 73.0481 536.577 77.1548 541.643 77.1548H542.268M542.268 77.1548C547.679 77.1548 552.066 73.0481 552.066 67.9823M542.268 77.1548H542.893C547.959 77.1548 552.066 73.0481 552.066 67.9823V67.9823M552.066 67.9823V58.1614M552.066 58.1614C552.066 52.3389 560.104 50.0167 563.609 54.8266M552.066 58.1614V58.1614C552.066 52.1158 559.798 49.5974 563.359 54.4834L563.609 54.8266M563.609 54.8266L577.573 73.9908M577.573 73.9908C579.016 75.9705 581.41 77.1548 583.97 77.1548M577.573 73.9908V73.9908C579.022 75.9789 581.334 77.1548 583.794 77.1548H583.97M583.97 77.1548C590.411 77.1548 594.037 70.2208 590.085 65.4586M583.97 77.1548H584.592C590.637 77.1548 593.945 70.1104 590.085 65.4586V65.4586M590.085 65.4586L575.894 48.3578M575.894 48.3578C573.527 45.5057 575.699 41.3527 579.557 41.3527M575.894 48.3578V48.3578C573.582 45.5717 575.564 41.3527 579.184 41.3527H579.557M579.557 41.3527C587.24 41.3527 593.469 35.5213 593.469 28.3278M579.557 41.3527H580.445C587.638 41.3527 593.469 35.5213 593.469 28.3278V28.3278M593.469 28.3278V19.7531M593.469 19.7531C593.469 9.94833 584.979 2 574.506 2M593.469 19.7531V19.7531C593.469 9.94833 585.521 2 575.716 2H574.506M574.506 2H545.113M558.373 12.0601H563.686C569.487 12.0601 574.19 16.7628 574.19 22.564V22.564C574.19 28.3651 569.487 33.0679 563.686 33.0679H558.373C554.89 33.0679 552.066 30.2439 552.066 26.7602V18.3678C552.066 14.8841 554.89 12.0601 558.373 12.0601Z" stroke="#1C1125" stroke-opacity="0.75" stroke-width="2.39504"/>
</svg>
