<svg width="150" height="57" viewBox="0 0 150 57" fill="none" xmlns="http://www.w3.org/2000/svg">
<path d="M131.218 38.9326V33.8873C131.218 31.4357 133.205 29.4482 135.657 29.4482H146.521C147.522 29.4482 148.333 30.2598 148.333 31.261C148.333 32.2622 147.522 33.0738 146.521 33.0738H138.792C137.214 33.0738 135.936 34.3526 135.936 35.9301C135.936 37.5075 137.214 38.7863 138.792 38.7863H143.894C146.346 38.7863 148.333 40.7738 148.333 43.2254V51.5609C148.333 54.0125 146.346 56 143.894 56H133.724C132.34 56 131.218 54.878 131.218 53.4941C131.218 52.1101 132.34 50.9882 133.724 50.9882H139.368C141.472 50.9882 143.177 49.2832 143.177 47.1799C143.177 45.0766 141.472 43.3716 139.368 43.3716H135.657C133.205 43.3716 131.218 41.3842 131.218 38.9326Z" fill="#52B85A" stroke="#1C1125" stroke-opacity="0.75" stroke-width="0.887097"/>
<path fill-rule="evenodd" clip-rule="evenodd" d="M109.349 31.8296V53.6186V53.8056C109.349 55.0175 110.51 56 111.942 56H112.103H121.054H121.537C125.834 56 129.317 53.0526 129.317 49.4169V48.856V36.5922V36.0313C129.317 32.3956 125.834 29.4482 121.537 29.4482H121.054H112.103H111.942C110.51 29.4482 109.349 30.4307 109.349 31.6426V31.8296ZM117.49 35.1634C116.264 35.1634 115.27 36.1571 115.27 37.3829V47.8272C115.27 49.053 116.264 50.0467 117.49 50.0467H119.645C122.096 50.0467 124.084 48.0592 124.084 45.6076V39.6024C124.084 37.1508 122.096 35.1634 119.645 35.1634H117.49Z" fill="#3DA4DE"/>
<path d="M109.349 31.8296V53.6186M109.349 31.8296C109.349 30.5144 110.582 29.4482 112.103 29.4482M109.349 31.8296V31.6426M109.349 53.6186C109.349 54.9338 110.582 56 112.103 56M109.349 53.6186V53.8056M112.103 56H121.054L121.537 56M112.103 56L111.942 56M112.103 29.4482H121.054H121.537M112.103 29.4482H111.942M109.349 31.6426C109.349 30.4307 110.51 29.4482 111.942 29.4482M109.349 31.6426V31.6426C109.349 30.4307 110.331 29.4482 111.543 29.4482H111.942M121.537 29.4482C125.834 29.4482 129.317 32.3956 129.317 36.0313M121.537 29.4482H122.734C126.369 29.4482 129.317 32.3956 129.317 36.0313V36.0313M129.317 36.0313V36.5922V48.856V49.4169M129.317 49.4169C129.317 53.0526 125.834 56 121.537 56M129.317 49.4169V49.4169C129.317 53.0526 126.369 56 122.734 56L121.537 56M111.942 56C110.51 56 109.349 55.0175 109.349 53.8056M111.942 56L111.543 56C110.331 56 109.349 55.0175 109.349 53.8056V53.8056M124.084 45.6076V39.6024C124.084 37.1508 122.096 35.1634 119.645 35.1634H117.49C116.264 35.1634 115.27 36.1571 115.27 37.3829V47.8272C115.27 49.053 116.264 50.0467 117.49 50.0467H119.645C122.096 50.0467 124.084 48.0592 124.084 45.6076Z" stroke="#1C1125" stroke-opacity="0.75" stroke-width="0.887097"/>
<path d="M85.475 19.1525V8.49926C85.475 6.76895 84.0723 5.36625 82.342 5.36625H81.3921C80.1864 5.36625 79.209 4.38883 79.209 3.18312C79.209 1.97742 80.1864 1 81.3921 1H97.2785C98.4842 1 99.4617 1.97742 99.4617 3.18312C99.4617 4.38883 98.4842 5.36625 97.2785 5.36625H95.7132C93.643 5.36625 91.9648 7.04448 91.9648 9.11467V18.537C91.9648 20.6072 93.643 22.2855 95.7132 22.2855H96.7873C98.2643 22.2855 99.4617 23.4828 99.4617 24.9598C99.4617 26.4368 98.2643 27.6341 96.7873 27.6341H81.8833C80.4063 27.6341 79.209 26.4368 79.209 24.9598C79.209 23.4828 80.4063 22.2855 81.8833 22.2855H82.342C84.0723 22.2855 85.475 20.8828 85.475 19.1525Z" fill="#3DA4DE" stroke="#1C1125" stroke-opacity="0.75" stroke-width="0.887097"/>
<path d="M51.8176 47.5789V36.89C51.8176 35.184 50.4346 33.801 48.7286 33.801H47.816C46.614 33.801 45.6396 32.8266 45.6396 31.6246C45.6396 30.4226 46.614 29.4482 47.816 29.4482H63.4314C64.6334 29.4482 65.6078 30.4226 65.6078 31.6246C65.6078 32.8266 64.6334 33.801 63.4314 33.801H61.912C59.8709 33.801 58.2163 35.4556 58.2163 37.4967V46.9721C58.2163 49.0132 59.8709 50.6679 61.912 50.6679H62.9417C64.4142 50.6679 65.6078 51.8615 65.6078 53.3339C65.6078 54.8063 64.4142 56 62.9417 56H48.3057C46.8333 56 45.6396 54.8063 45.6396 53.3339C45.6396 51.8615 46.8333 50.6679 48.3057 50.6679H48.7286C50.4346 50.6679 51.8176 49.2849 51.8176 47.5789Z" fill="#52B85A" stroke="#1C1125" stroke-opacity="0.75" stroke-width="0.887097"/>
<path d="M109.801 17.5466V24.2449C109.801 26.1167 108.284 27.6341 106.412 27.6341C104.54 27.6341 103.022 26.1167 103.022 24.2449V4.06826C103.022 2.37371 104.396 1 106.091 1C107.072 1 107.993 1.46889 108.571 2.26165L115.79 12.1715C117.055 13.9082 119.803 13.0133 119.803 10.8646V4.18256C119.803 2.42488 121.228 1 122.986 1C124.743 1 126.168 2.42489 126.168 4.18257V24.8998C126.168 26.4099 124.944 27.6341 123.434 27.6341C122.556 27.6341 121.731 27.2121 121.217 26.4996L113.82 16.248C112.56 14.5012 109.801 15.3927 109.801 17.5466Z" fill="#52B85A" stroke="#1C1125" stroke-opacity="0.75" stroke-width="0.887097"/>
<path d="M91.3082 46.0268V52.6584C91.3082 54.5039 89.8121 56 87.9666 56C86.1211 56 84.625 54.5039 84.625 52.6584V32.4668C84.625 30.7997 85.9764 29.4482 87.6435 29.4482C88.614 29.4482 89.5253 29.9149 90.0926 30.7023L97.1497 40.4974C98.4092 42.2455 101.17 41.3546 101.17 39.2V32.5861C101.17 30.8531 102.575 29.4482 104.308 29.4482C106.041 29.4482 107.446 30.8531 107.446 32.5861V53.31C107.446 54.7956 106.241 56 104.756 56C103.887 56 103.071 55.58 102.566 54.8724L95.3345 44.7376C94.08 42.9795 91.3082 43.867 91.3082 46.0268Z" fill="#F46B1E" stroke="#1C1125" stroke-opacity="0.75" stroke-width="0.887097"/>
<path d="M61.1816 23.1951V3.97519C61.1816 2.33204 62.5137 1 64.1568 1C65.8 1 67.132 2.33204 67.132 3.97519V16.6661C67.132 19.0176 69.0383 20.924 71.3899 20.924H72.2928C74.1457 20.924 75.6478 22.4261 75.6478 24.279C75.6478 26.132 74.1457 27.6341 72.2928 27.6341H65.6207C63.1691 27.6341 61.1816 25.6467 61.1816 23.1951Z" fill="#F46B1E" stroke="#1C1125" stroke-opacity="0.75" stroke-width="0.887097"/>
<path d="M21.5664 7.65854V20.9756C21.5664 24.653 24.5475 27.6341 28.2249 27.6341H34.9856C36.3228 27.6341 37.4069 26.5501 37.4069 25.2128C37.4069 23.8756 36.3228 22.7916 34.9856 22.7916H31.3629C29.5416 22.7916 28.0651 21.315 28.0651 19.4937C28.0651 17.6723 29.5416 16.1958 31.3629 16.1958H32.5921C33.9801 16.1958 35.1053 15.0706 35.1053 13.6826C35.1053 12.2946 33.9801 11.1694 32.5921 11.1694H30.4864C29.1491 11.1694 28.0651 10.0853 28.0651 8.74811C28.0651 7.41087 29.1491 6.32682 30.4864 6.32682H35.1496C36.6206 6.32682 37.8131 5.13437 37.8131 3.66341C37.8131 2.19245 36.6206 1 35.1496 1H28.2249C24.5475 1 21.5664 3.98113 21.5664 7.65854Z" fill="#52B85A" stroke="#1C1125" stroke-opacity="0.75" stroke-width="0.887097"/>
<path d="M41.375 7.65854V20.9756C41.375 24.653 44.3561 27.6341 48.0335 27.6341H54.7942C56.1314 27.6341 57.2155 26.5501 57.2155 25.2128C57.2155 23.8756 56.1314 22.7916 54.7942 22.7916H51.1715C49.3502 22.7916 47.8737 21.315 47.8737 19.4937C47.8737 17.6723 49.3502 16.1958 51.1715 16.1958H52.4007C53.7887 16.1958 54.9139 15.0706 54.9139 13.6826C54.9139 12.2946 53.7887 11.1694 52.4007 11.1694H50.2949C48.9577 11.1694 47.8737 10.0853 47.8737 8.74811C47.8737 7.41087 48.9577 6.32682 50.2949 6.32682H54.9582C56.4292 6.32682 57.6217 5.13437 57.6217 3.66341C57.6217 2.19245 56.4292 1 54.9582 1H48.0335C44.3561 1 41.375 3.98113 41.375 7.65854Z" fill="#F5D73A" stroke="#1C1125" stroke-opacity="0.75" stroke-width="0.887097"/>
<path d="M67.5098 36.1068V49.3414C67.5098 53.0188 70.4909 56 74.1683 56H79.9295C81.2626 56 82.3432 54.9193 82.3432 53.5862C82.3432 52.2531 81.2626 51.1724 79.9295 51.1724H76.883C75.0672 51.1724 73.5953 49.7004 73.5953 47.8847C73.5953 46.069 75.0672 44.597 76.883 44.597H77.6825C79.0662 44.597 80.188 43.4753 80.188 42.0916C80.188 40.7079 79.0662 39.5862 77.6825 39.5862H76.0091C74.676 39.5862 73.5953 38.5055 73.5953 37.1724C73.5953 35.8393 74.676 34.7586 76.0091 34.7586H80.0684C81.5348 34.7586 82.7236 33.5698 82.7236 32.1034C82.7236 30.637 81.5348 29.4482 80.0684 29.4482H74.1683C70.4909 29.4482 67.5098 32.4294 67.5098 36.1068Z" fill="#F5D73A" stroke="#1C1125" stroke-opacity="0.75" stroke-width="0.887097"/>
<path d="M0.950195 33.8873V52.7634C0.950195 54.5509 2.39927 56 4.18679 56C5.97431 56 7.42339 54.5509 7.42339 52.7634V48.5838C7.42339 46.1322 9.4108 44.1448 11.8624 44.1448H15.2734C16.8156 44.1448 18.0658 42.8946 18.0658 41.3524C18.0658 39.8103 16.8156 38.5601 15.2734 38.5601H8.6481C7.97171 38.5601 7.42339 38.0118 7.42339 37.3354C7.42339 36.659 7.97171 36.1107 8.6481 36.1107H11.9917C13.8314 36.1107 15.3229 34.6192 15.3229 32.7795C15.3229 30.9397 13.8314 29.4482 11.9917 29.4482H5.38922C2.93761 29.4482 0.950195 31.4357 0.950195 33.8873Z" fill="#F46B1E" stroke="#1C1125" stroke-opacity="0.75" stroke-width="0.887097"/>
<path d="M0.646484 5.43902L0.646484 24.3514C0.646484 26.1644 2.11621 27.6341 3.9292 27.6341C5.74219 27.6341 7.21191 26.1644 7.21191 24.3514V20.1812C7.21191 17.7296 9.19933 15.7421 11.6509 15.7421H15.2049C16.7519 15.7421 18.0059 14.4881 18.0059 12.9411C18.0059 11.3942 16.7519 10.1401 15.2049 10.1401L8.44042 10.1401C7.76194 10.1401 7.21191 9.5901 7.21191 8.91161C7.21191 8.23312 7.76194 7.6831 8.44042 7.6831H11.8824C13.7279 7.6831 15.224 6.18704 15.224 4.34155C15.224 2.49606 13.7279 1 11.8824 1L5.08551 1C2.6339 1 0.646484 2.98742 0.646484 5.43902Z" fill="#3DA4DE" stroke="#1C1125" stroke-opacity="0.75" stroke-width="0.887097"/>
<path d="M134.169 1H142.394C144.188 1 145.642 2.45421 145.642 4.24806C145.642 6.04192 144.188 7.49613 142.394 7.49613H140.4C137.949 7.49613 135.961 9.48355 135.961 11.9351V17.9485C135.961 20.0688 137.68 21.7876 139.8 21.7876H141.636C142.743 21.7876 143.639 20.8908 143.639 19.7846V19.729C143.639 18.6535 142.767 17.7817 141.692 17.7817C140.616 17.7817 139.745 16.9098 139.745 15.8343V14.9125C139.745 13.328 141.029 12.0434 142.614 12.0434H144.208C146.659 12.0434 148.647 14.0308 148.647 16.4824V23.1951C148.647 25.6467 146.659 27.6341 144.208 27.6341H134.169C131.717 27.6341 129.729 25.6467 129.729 23.1951V5.43902C129.729 2.98742 131.717 1 134.169 1Z" fill="#F5D73A" stroke="#1C1125" stroke-opacity="0.75" stroke-width="0.887097"/>
<path fill-rule="evenodd" clip-rule="evenodd" d="M19.9668 52.7594V33.6296C19.9668 31.3203 21.9655 29.4482 24.4309 29.4482H34.8101C38.5083 29.4482 41.5063 32.2563 41.5063 35.7203V38.7497C41.5063 41.2911 39.3068 43.3513 36.5935 43.3513C35.2312 43.3513 34.4646 44.8185 35.3003 45.8262L40.3112 51.8678C41.7066 53.5502 40.4265 56 38.152 56C37.2481 56 36.4026 55.5816 35.8933 54.8822L30.9622 48.1116C29.7246 46.4123 26.8862 47.2327 26.8862 49.2897V52.7594C26.8862 54.5491 25.3373 56 23.4265 56C21.5158 56 19.9668 54.5491 19.9668 52.7594ZM34.6985 36.7134C34.6985 38.7629 33.037 40.4243 30.9875 40.4243H29.1057C27.8799 40.4243 26.8862 39.4306 26.8862 38.2048V35.2219C26.8862 33.9961 27.8799 33.0024 29.1057 33.0024H30.9875C33.037 33.0024 34.6985 34.6639 34.6985 36.7134Z" fill="#3DA4DE"/>
<path d="M19.9668 33.6296V52.7594M19.9668 33.6296C19.9668 31.3203 21.9655 29.4482 24.4309 29.4482M19.9668 33.6296V33.6296C19.9668 31.3203 21.8389 29.4482 24.1482 29.4482H24.4309M19.9668 52.7594C19.9668 54.5491 21.5158 56 23.4265 56M19.9668 52.7594V52.7594C19.9668 54.5491 21.4176 56 23.2074 56H23.4265M23.4265 56C25.3373 56 26.8862 54.5491 26.8862 52.7594M23.4265 56H23.6457C25.4354 56 26.8862 54.5491 26.8862 52.7594V52.7594M26.8862 52.7594V49.2897M26.8862 49.2897C26.8862 47.2327 29.7246 46.4123 30.9622 48.1116M26.8862 49.2897V49.2897C26.8862 47.1545 29.6175 46.2653 30.8746 47.9913L30.9622 48.1116M30.9622 48.1116L35.8933 54.8822M35.8933 54.8822C36.4026 55.5816 37.2481 56 38.152 56M35.8933 54.8822V54.8822C36.4048 55.5845 37.2213 56 38.0902 56H38.152M38.152 56C40.4265 56 41.7066 53.5502 40.3112 51.8678M38.152 56H38.3699C40.5055 56 41.6745 53.5116 40.3112 51.8678V51.8678M40.3112 51.8678L35.3003 45.8262M35.3003 45.8262C34.4646 44.8185 35.2312 43.3513 36.5935 43.3513M35.3003 45.8262V45.8262C34.4838 44.8417 35.1839 43.3513 36.463 43.3513H36.5935M36.5935 43.3513C39.3068 43.3513 41.5063 41.2911 41.5063 38.7497M36.5935 43.3513H36.9047C39.4461 43.3513 41.5063 41.2911 41.5063 38.7497V38.7497M41.5063 38.7497V35.7203M41.5063 35.7203C41.5063 32.2563 38.5083 29.4482 34.8101 29.4482M41.5063 35.7203V35.7203C41.5063 32.2563 38.6982 29.4482 35.2343 29.4482H34.8101M34.8101 29.4482H24.4309M29.1057 33.0024H30.9875C33.037 33.0024 34.6985 34.6639 34.6985 36.7134V36.7134C34.6985 38.7629 33.037 40.4243 30.9875 40.4243H29.1057C27.8799 40.4243 26.8862 39.4306 26.8862 38.2048V35.2219C26.8862 33.9961 27.8799 33.0024 29.1057 33.0024Z" stroke="#1C1125" stroke-opacity="0.75" stroke-width="0.887097"/>
</svg>
