<svg width="168" height="51" viewBox="0 0 168 51" fill="none" xmlns="http://www.w3.org/2000/svg">
<path d="M40.4482 51L49.5579 33.6169C51.9157 29.1176 51.997 23.7659 49.7768 19.1971L40.4482 0H16C7.16344 0 0 7.16344 0 16V35C0 43.8366 7.16344 51 16 51H40.4482Z" fill="#3DA4DE"/>
<path d="M118.869 34.3008C121.739 29.4409 121.837 23.4281 119.126 18.4776L109.005 0H40.4482L49.7768 19.1971C51.997 23.7659 51.9157 29.1176 49.5579 33.6169L40.4482 51H109.005L118.869 34.3008Z" fill="#52B85A"/>
<path d="M109.005 0L119.126 18.4776C121.837 23.4281 121.739 29.4409 118.869 34.3008L109.005 51H127.342L139.324 36.132C143.91 30.442 144.057 22.368 139.683 16.5141L127.342 0H109.005Z" fill="#F5D73A"/>
<path d="M127.342 0L139.683 16.5141C144.057 22.368 143.91 30.442 139.324 36.132L127.342 51H151.537C160.374 51 167.537 43.8366 167.537 35V16C167.537 7.16344 160.374 0 151.537 0H127.342Z" fill="#F46B1E"/>
</svg>
