<svg width="38" height="38" viewBox="0 0 38 38" fill="none" xmlns="http://www.w3.org/2000/svg">
<path d="M30.1728 23.2861C30.3861 23.0647 30.5313 22.7826 30.5901 22.4755C30.6489 22.1684 30.6187 21.8501 30.5033 21.5608C30.3879 21.2715 30.1925 21.0243 29.9417 20.8503C29.6909 20.6763 29.3961 20.5834 29.0945 20.5833H18.4181V23.75H25.4127L18.865 30.5472C18.6517 30.7687 18.5065 31.0508 18.4477 31.3579C18.3889 31.665 18.4191 31.9833 18.5345 32.2725C18.6499 32.5618 18.8453 32.8091 19.0961 32.9831C19.3469 33.157 19.6417 33.2499 19.9433 33.25H30.6197V30.0833H23.6251L30.1728 23.2861ZM9.26684 6.3175L3.16602 12.6508H7.74163V31.6508H10.792V12.6508H15.3677L9.26684 6.3175ZM26.0441 4.75H22.9937C22.3577 4.75 21.7888 5.16008 21.5646 5.77758L17.3703 17.3882H20.6296L21.7629 14.25H27.2734L28.4066 17.3866H31.666L27.4717 5.776C27.3625 5.47455 27.1673 5.21485 26.9123 5.03153C26.6572 4.84821 26.3543 4.75 26.0441 4.75ZM22.9068 11.0833L24.0507 7.91667H24.9856L26.1295 11.0833H22.9068Z" fill="#E4D1AB"/>
</svg>
