<svg width="151" height="91" viewBox="0 0 151 91" fill="none" xmlns="http://www.w3.org/2000/svg">
<path d="M27.0895 62.7743L17.4695 68.7714L15.8661 63.9737C11.056 66.2127 7.44852 63.6105 6.24604 62.0295C6.1274 62.0875 5.99346 62.1442 5.84505 62.1988C4.96273 62.5236 5.56901 62.653 3.83651 62.6529C0.229333 59.4545 1.25496 56.1759 3.83634 53.0576C4.60529 52.1287 4.27693 51.4223 5.04357 50.78C2.06562 49.5806 1.03523 37.9861 3.84107 38.3859C6.08574 38.7058 9.31913 44.9161 10.6552 47.9813V46.3088C9.74193 43.2978 10.2196 33.1884 13.4263 33.988C15.9916 34.6277 17.4346 43.1836 17.8356 46.3088C19.5156 46.5786 22.3445 47.9862 24.2837 50.78C27.1697 54.938 23.8828 58.3764 21.8787 59.5758L27.0895 62.7743Z" fill="#FFF9E4"/>
<path d="M21.8787 59.5758L27.0895 62.7743L17.4695 68.7714L15.8661 63.9737C11.056 66.2127 7.44852 63.6105 6.24604 62.0295M21.8787 59.5758L19.0728 61.175M21.8787 59.5758C23.8828 58.3764 27.1697 54.938 24.2837 50.78C22.3445 47.9862 19.5156 46.5786 17.8356 46.3088M19.0728 53.1789C17.7902 55.098 14.5298 55.7544 12.6592 55.7544C11.3845 55.2458 8.86806 54.9325 8.2502 54.4319M17.8356 46.3088C16.3901 46.0768 15.3148 47.059 13.461 48.3533C9.9777 49.362 4.98237 51.7846 8.2502 54.4319M17.8356 46.3088C17.4346 43.1836 15.9916 34.6277 13.4263 33.988C10.2196 33.1884 9.74193 43.2978 10.6552 46.3088V47.9813C9.31913 44.9161 6.08574 38.7058 3.84107 38.3859C1.03523 37.9861 2.06562 49.5806 5.04357 50.78C4.27693 51.4223 4.60529 52.1287 3.83634 53.0576C1.25496 56.1759 0.229333 59.4545 3.83651 62.6529C5.56901 62.653 4.96273 62.5236 5.84505 62.1988C5.99346 62.1442 6.1274 62.0875 6.24604 62.0295M6.24604 62.0295C7.55071 61.3921 8.64328 60.3445 8.2502 58.7762V54.4319" stroke="#8D8772" stroke-width="3" stroke-linecap="round"/>
<path d="M72.7796 28.6859C61.14 51.8413 37.4837 45.8381 27.1105 39.942C17.1026 35.9219 13.7736 12.2037 30.7479 6.17361C31.5449 5.89048 32.3542 5.65711 33.1729 5.46973C36.2432 3.04173 58.869 -3.84141 72.1252 9.34435C72.8416 9.8215 74.9148 13.5433 75.4489 16.6257C81.8339 17.2958 95.2505 19.0378 97.837 20.6458C97.2982 26.1399 95.6546 37.128 93.3914 37.128C91.1281 37.128 79.9997 29.6239 74.7184 25.8719C73.1999 29.4074 72.7796 29.3341 72.7796 28.6859Z" fill="#FFF9E4"/>
<path d="M72.7796 28.6859C61.14 51.8413 37.4837 45.8381 27.1105 39.942C17.1026 35.9219 13.7736 12.2037 30.7479 6.17361C31.5449 5.89048 32.3542 5.65711 33.1729 5.46973M72.7796 28.6859C70.9861 29.9711 68.5388 29.9723 67.5688 28.6859M72.7796 28.6859C72.7796 29.3341 73.1999 29.4074 74.7184 25.8719M66.9992 17.8318C67.4959 17.7362 67.5651 16.6866 68.1383 16.6257M68.1383 16.6257C61.671 11.5293 46.3035 2.46458 33.1729 5.46973M68.1383 16.6257C70.7341 16.3501 74.0723 16.2911 75.6033 17.8318M22.665 20.6458C25.0336 20.1673 27.1284 20.7904 28.3231 22.6558M39.6393 22.6558C41.3906 21.3158 46.7524 19.0378 49.3389 20.6458M30.7479 28.6859C27.9189 29.2219 24.5241 30.0117 30.3438 32.2629C28.1884 32.9329 24.5241 35.52 30.3438 37.128M33.1729 5.46973C36.2432 3.04173 58.869 -3.84141 72.1252 9.34435C72.8416 9.8215 74.9148 13.5433 75.4489 16.6257M75.6033 17.8318C76.5771 18.8118 76.8988 20.3423 76.0128 22.6558C75.5116 23.9643 75.0833 25.0223 74.7184 25.8719M75.6033 17.8318C75.5673 17.4079 75.5148 17.006 75.4489 16.6257M75.4489 16.6257C81.8339 17.2958 95.2505 19.0378 97.837 20.6458C97.2982 26.1399 95.6546 37.128 93.3914 37.128C91.1281 37.128 79.9997 29.6239 74.7184 25.8719" stroke="#8D8772" stroke-width="3" stroke-linecap="round"/>
<path d="M138.317 65.2229C145.268 65.5026 147.701 67.4372 148.049 68.3696C150.134 70.8869 149.717 72.0617 148.399 72.5651C148.682 73.7087 148.686 75.8343 147.006 76.7241C147.542 77.8963 147.881 79.489 147.476 80.9562C146.829 83.2969 144.287 85.3179 137.622 84.8022C137.622 85.9676 137.274 88.5082 135.884 89.3473C134.494 90.1864 127.427 87.3661 124.068 85.851L125.805 82.3233C122.738 80.6434 123.06 77.1847 125.11 75.7118C127.543 73.9636 131.714 62.0762 133.104 58.9296C134.494 55.7829 138.317 56.8318 139.012 57.8807C139.568 58.7198 138.781 63.1251 138.317 65.2229Z" fill="#FFF9E4"/>
<path d="M142.835 67.3207C141.211 67.4168 138.533 67.9723 138.577 69.4185M127.891 83.054C127.07 82.8889 126.378 82.6371 125.805 82.3233M125.805 82.3233C122.738 80.6434 123.06 77.1847 125.11 75.7118C127.543 73.9636 131.714 62.0762 133.104 58.9296C134.494 55.7829 138.317 56.8318 139.012 57.8807C139.568 58.7198 138.781 63.1251 138.317 65.2229C145.268 65.5026 147.701 67.4372 148.049 68.3696C150.134 70.8869 149.717 72.0617 148.399 72.5651M125.805 82.3233L124.068 85.851C127.427 87.3661 134.494 90.1864 135.884 89.3473C137.274 88.5082 137.622 85.9676 137.622 84.8022M137.622 84.8022H134.842M137.622 84.8022C144.287 85.3179 146.829 83.2969 147.476 80.9562M148.399 72.5651C146.422 73.3203 142.418 72.5651 141.793 72.5651C140.75 72.5651 140.055 71.8659 139.012 70.4673C138.719 70.0746 138.586 69.7263 138.577 69.4185M148.399 72.5651C148.682 73.7087 148.686 75.8343 147.006 76.7241M147.006 76.7241C146.631 76.9224 146.173 77.0593 145.616 77.1103C143.941 78.0182 140.189 79.2121 138.585 76.7241M147.006 76.7241C147.542 77.8963 147.881 79.489 147.476 80.9562M138.577 69.4185C139.28 71.4051 139.846 74.6943 138.585 76.7241M134.842 78.5088C136.043 78.5088 136.95 78.226 137.622 77.7519M138.585 76.7241C138.338 77.1213 138.021 77.4704 137.622 77.7519M147.476 80.9562C144.423 81.8966 138.178 83.2131 137.622 80.9562C137.066 78.6993 137.39 77.8797 137.622 77.7519" stroke="#8D8772" stroke-width="3" stroke-linecap="round"/>
<path d="M129.288 61.589C126.623 66.6004 115.733 75.7839 93.4901 72.4275C79.266 70.2811 75.1802 62.2059 75.1433 54.4376C75.1225 50.0581 76.3886 45.7762 77.8504 42.709C83.9675 29.5629 100.325 28.3742 107.739 29.4231C112.373 26.8591 122.128 22.0109 124.074 23.1297C126.021 24.2486 123.263 29.8893 121.641 32.5697C125.58 32.1036 133.667 31.4509 134.501 32.5697C135.335 33.6886 131.373 37.6976 129.288 39.5623C131.822 41.1311 131.998 45.1973 131.518 48.6527C131.314 50.126 130.989 51.4883 130.678 52.4986C133.18 56.9739 130.794 60.4236 129.288 61.589Z" fill="#FFF9E4"/>
<path d="M87.9295 55.2957C83.0911 56.8167 80.0945 55.9556 80.0844 51.1001M80.0844 51.1001C80.0829 50.3752 80.1479 49.5611 80.2834 48.6527C81.1175 43.0586 85.0332 45.1564 86.8868 46.9046C88.6243 48.1229 91.6823 50.9474 90.0144 52.4986C92.3314 51.5663 96.8264 48.3031 96.2703 42.709C98.4715 40.0285 104.751 35.157 112.258 37.1149C121.641 39.5623 125.408 38.1638 131.518 48.6527M80.0844 51.1001C79.3887 53.3251 77.4265 57.1076 75.1433 54.4376M75.1433 54.4376C75.1225 50.0581 76.3886 45.7762 77.8504 42.709C83.9675 29.5629 100.325 28.3742 107.739 29.4231C112.373 26.8591 122.128 22.0109 124.074 23.1297C126.021 24.2486 123.263 29.8893 121.641 32.5697C125.58 32.1036 133.667 31.4509 134.501 32.5697C135.335 33.6886 131.373 37.6976 129.288 39.5623C131.822 41.1311 131.998 45.1973 131.518 48.6527M75.1433 54.4376C75.1802 62.2059 79.266 70.2811 93.4901 72.4275C115.733 75.7839 126.623 66.6004 129.288 61.589C130.794 60.4236 133.18 56.9739 130.678 52.4986C130.989 51.4883 131.314 50.126 131.518 48.6527M110.52 52.4986C109.593 51.3332 107.044 49.2121 104.264 50.0512M117.123 52.4986C118.745 51.3332 122.615 49.2121 125.117 50.0512M121.641 57.7431C118.166 57.7431 116.011 59.0717 115.733 60.1905C114.343 59.6078 111.076 58.5123 109.13 58.792C106.697 59.1416 103.221 62.2883 107.739 64.0364C112.258 65.7846 125.117 63.319 121.641 57.7431Z" stroke="#8D8772" stroke-width="3" stroke-linecap="round"/>
</svg>
