<svg width="173" height="117" viewBox="0 0 173 117" fill="none" xmlns="http://www.w3.org/2000/svg">
<path d="M117.155 103.553C103.672 107.239 93.1767 98.2366 89.6142 93.2747C89.4772 94.6924 82.4203 94.338 80.1596 90.4394C76.0394 83.3338 80.1543 83.1553 84.4019 82.4465C78.2367 82.4465 80.1596 77.4846 83.1687 77.4846C77.0028 75.0443 80.4235 69.8423 84.8133 69.8423C79.8806 63.321 87.1434 62.3995 91.391 62.3995C92.0487 54.4604 102.627 56.7287 107.833 58.8552C114.411 52.7895 120.033 57.792 120.033 61.3768C128.254 59.9591 129.624 64.4079 128.665 67.3614C133.598 67.3614 131.405 72.0094 130.309 73.7815C133.598 76.0498 130.583 79.216 128.665 80.1612C130.446 86.4226 130.638 99.867 117.155 103.553Z" fill="#FFF9E4"/>
<path d="M128.665 80.1612C130.446 86.4226 130.638 99.867 117.155 103.553C103.672 107.239 93.1767 98.2366 89.6142 93.2747C89.4772 94.6924 82.4203 94.338 80.1596 90.4394C76.0394 83.3338 80.1543 83.1553 84.4019 82.4465C78.2367 82.4465 80.1596 77.4846 83.1687 77.4846C77.0028 75.0443 80.4235 69.8423 84.8133 69.8423C79.8806 63.321 87.1434 62.3995 91.391 62.3995C92.0487 54.4604 102.627 56.7287 107.833 58.8552C114.411 52.7895 120.033 57.792 120.033 61.3768C128.254 59.9591 129.624 64.4079 128.665 67.3614C133.598 67.3614 131.405 72.0094 130.309 73.7815C133.598 76.0498 130.583 79.216 128.665 80.1612ZM128.665 80.1612C128.665 78.5072 128.089 74.4195 125.787 71.3006C123.485 68.1817 119.343 64.526 115.233 64.526M100.302 80.87C100.713 80.2793 104.33 78.3182 107.29 79.4523M117.566 79.4523C116.744 79.4523 120.444 76.9713 123.321 79.4523M113.867 79.0979C115.785 82.524 118.306 89.2343 113.045 88.6673M115.511 74.4904C115.922 73.6634 117.813 72.3638 122.088 73.7815M106.879 74.136C105.097 73.1909 100.959 72.0095 98.6575 74.8448M105.646 90.4394C102.905 92.0933 98.9864 95.1886 105.235 94.338C106.194 95.7557 108.03 96.9607 110.989 93.2747C112.634 94.5743 116.909 96.2112 117.566 92.5253C122.91 93.2341 125.231 88.981 119.343 88.981" stroke="#8D8772" stroke-width="3" stroke-linecap="round"/>
<path d="M160.122 113.597C156.58 109.745 147.292 112.594 143.091 114.5C140.912 106.796 131.284 107.076 126.742 108.18L134.917 83.8026C142.546 81.1542 148.995 88.5175 151.266 92.5303C156.171 87.715 165.799 89.1194 170 90.4236L160.122 113.597Z" fill="#FFF9E4"/>
<path d="M151.266 92.5303L143.091 114.5M151.266 92.5303C156.171 87.715 165.799 89.1194 170 90.4236L160.122 113.597C156.58 109.745 147.292 112.594 143.091 114.5M151.266 92.5303C148.995 88.5175 142.546 81.1542 134.917 83.8026L126.742 108.18C131.284 107.076 140.912 106.796 143.091 114.5M152.969 97.0446C155.499 95.4395 161.222 92.7108 163.869 94.6369M151.266 102.161C152.969 100.857 157.125 98.7299 160.122 100.656M149.222 108.18C150.625 106.675 154.291 104.207 157.738 106.374" stroke="#8D8772" stroke-width="3" stroke-linecap="round"/>
<path d="M64.7091 74.1093C51.319 74.1093 50.4511 59.9426 51.6909 52.8592C47.5995 54.6677 45.0268 51.5028 44.252 49.6943C45.8017 51.2014 50.6681 50.4177 57.7351 35.2261C62.8474 24.2364 73.2541 23.9981 82.3766 26.2736C80.8269 23.0786 79.4011 16.5079 86.0961 15.7845C94.465 14.8802 104.229 17.7553 102.369 26.2736C101.278 31.2678 98.7898 32.0992 96.8059 31.6675C97.1407 31.815 97.4461 31.9472 97.7195 32.0612C102.927 34.2314 101.749 43.4715 100.509 47.8202C101.964 49.1499 101.446 51.7848 100.509 54.2156C99.3933 57.1092 94.7749 57.8326 92.6052 57.8326C93.5351 62.8061 81.4468 74.1093 64.7091 74.1093Z" fill="#FFF9E4"/>
<path d="M100.509 47.8202C101.964 49.1499 101.446 51.7848 100.509 54.2156C99.3933 57.1092 94.7749 57.8326 92.6052 57.8326C93.5351 62.8061 81.4468 74.1093 64.7091 74.1093C51.319 74.1093 50.4511 59.9426 51.6909 52.8592C47.5995 54.6677 45.0268 51.5028 44.252 49.6943C45.8017 51.2014 50.6681 50.4177 57.7351 35.2261C62.8474 24.2364 73.2541 23.9981 82.3766 26.2736M100.509 47.8202C99.7991 47.1713 98.6195 46.8332 96.7896 46.9815C90.0946 45.5347 80.052 36.4318 75.8675 32.0612M100.509 47.8202C101.749 43.4715 102.927 34.2314 97.7195 32.0612C96.9974 31.7602 96.052 31.3313 94.9299 30.8323M59.5948 40.1995C60.7988 38.6924 64.344 36.5825 68.8935 40.1995M71.6831 42.008C72.303 39.8981 74.8447 36.5825 80.052 40.1995M82.3766 26.2736C80.8269 23.0786 79.4011 16.5079 86.0961 15.7845C94.4649 14.8802 104.229 17.7553 102.369 26.2736C100.881 33.0883 96.7896 32.1522 94.9299 30.8323M82.3766 26.2736C87.2684 27.4938 91.791 29.4367 94.9299 30.8323M62.3844 60.0933C63.4693 61.4497 66.8478 63.3486 71.6831 60.0933M66.5688 44.7208C65.0191 43.3644 60.8966 41.4655 56.8052 44.7208C51.6909 48.79 59.5948 53.3768 64.7091 50.5985C68.8005 48.3759 67.6537 45.7539 66.5688 44.7208ZM71.6831 47.8202C71.6831 51.8514 76.3325 52.8592 78.6572 52.8592C81.4468 53.3113 86.933 53.1305 86.5611 48.79C86.0961 43.3644 72.1481 42.3291 71.6831 47.8202Z" stroke="#8D8772" stroke-width="3" stroke-linecap="round"/>
<path d="M48.0047 70.3887C50.4488 68.3133 48.7435 65.9842 47.201 64.2601C44.0583 60.7477 44.3278 59.579 41.9222 56.8181C35.9296 49.9403 35.463 51.7033 32.5913 51.8833C32.1353 51.7784 29.8157 52.2494 29.2617 52.1584C19.2142 33.0026 6.18216 6.55279 3.39308 7.13214C0.823226 7.66594 3.42187 11.2914 3.58701 12.0902L23.0295 51.4572C21.0321 51.7177 19.4663 52.4959 19.36 54.215C19.1954 56.8761 22.3879 58.4976 25.3187 59.3603C24.0138 61.9937 24.6566 65.6707 25.9092 65.8715C25.8662 66.9477 26.2559 68.8504 27.9295 69.3331C27.6654 70.482 27.655 71.9705 28.2904 73.2078C29.1817 74.9438 31.3441 76.185 35.8595 75.2992C37.7792 79.7179 40.1994 86.1693 41.27 85.4853C41.8988 85.0836 44.1914 85.1562 44.6241 83.9556L41.7278 78.32C44.0545 77.4552 48.079 74.7704 50.2179 73.2212L48.0047 70.3887Z" fill="#FFF9E4"/>
<path d="M25.3963 59.2092C23.9893 61.8507 24.6325 65.6668 25.9092 65.8715M46.2671 71.4315C46.9736 71.1307 47.548 70.7765 48.0047 70.3887M48.0047 70.3887C50.4488 68.3133 48.7435 65.9842 47.201 64.2601C44.0583 60.7477 44.3278 59.579 41.9222 56.8181C35.9296 49.9403 35.463 51.7033 32.5913 51.8833C32.1353 51.7784 29.8157 52.2494 29.2617 52.1584M48.0047 70.3887L50.2179 73.2212C48.079 74.7704 44.0545 77.4552 41.7278 78.32M25.9092 65.8715C27.8242 66.1785 31.2802 64.7559 31.842 64.6392C32.7783 64.4447 33.2732 63.6894 33.9508 62.2435C34.1412 61.8374 34.1961 61.501 34.1477 61.2237M25.9092 65.8715C25.8662 66.9477 26.2559 68.8504 27.9295 69.3331M27.9295 69.3331C28.3026 69.4407 28.7394 69.4778 29.2495 69.4194C30.9218 69.9194 34.5115 70.2879 35.4921 67.7623M27.9295 69.3331C27.6654 70.482 27.655 71.9705 28.2903 73.2078M34.1477 61.2237C33.9201 59.9214 31.4114 59.924 29.9354 60.1409C28.9991 60.3354 19.0729 58.8564 19.36 54.215C19.4663 52.4959 21.0321 51.7177 23.0295 51.4572M34.1477 61.2237C34.0882 61.6542 34.0473 62.1427 34.0368 62.6592M35.4921 67.7623C35.7872 68.0718 36.1362 68.325 36.5469 68.5024C36.7786 68.5735 37.2216 69.2465 37.1397 71.3697C37.1074 72.2081 36.1752 72.7134 34.8795 73.0012M35.4921 67.7623C34.3243 66.5378 34.0009 64.433 34.0368 62.6592M28.2903 73.2078C30.0546 73.3724 32.894 73.4422 34.8795 73.0012M28.2903 73.2078C29.1817 74.9438 31.3441 76.185 35.8595 75.2992M29.2617 52.1584C19.2142 33.0026 6.18216 6.55279 3.39308 7.13214C0.823226 7.66594 3.42187 11.2914 3.58701 12.0902L23.0295 51.4572M29.2617 52.1584C27.5385 51.8753 24.7826 51.2287 23.0295 51.4572M34.0368 62.6592L41.7278 78.32M34.8795 73.0012C35.1567 73.6653 35.4895 74.4474 35.8595 75.2992M35.8595 75.2992C37.7792 79.7179 40.1994 86.1693 41.27 85.4853C41.8988 85.0836 44.1914 85.1562 44.6241 83.9556L41.7278 78.32" stroke="#8D8772" stroke-width="3"/>
</svg>
