<svg width="295" height="148" viewBox="0 0 295 148" fill="none" xmlns="http://www.w3.org/2000/svg">
<path d="M178.761 64.8021C178.761 50.3216 189.125 38.5828 201.91 38.5828C204.786 38.5828 207.54 39.1768 210.081 40.2625M178.761 64.8021C168.472 75.684 142.085 90.9187 118.845 64.8021M178.761 64.8021C151.163 90.9187 127.318 75.684 118.845 64.8021M178.761 64.8021C178.761 75.3335 184.243 84.4147 192.151 88.5847M118.845 64.8021C118.845 50.3216 108.481 38.5828 95.6955 38.5828C82.9104 38.5828 72.5461 50.3216 72.5461 64.8021C72.5461 79.2827 82.9104 91.0215 95.6955 91.0215C101.092 91.0215 106.057 88.9301 109.994 85.4239M118.845 64.8021C118.845 73.1706 115.383 80.6234 109.994 85.4239M203.272 39.0969C210.535 7.30801 209.264 -56.9894 146.08 -59.8684M146.08 -59.8684C139.271 -67.6657 117.483 -73.9035 81.1704 -45.7305C71.6383 -37.5048 70.8666 -46.8616 74.1348 -59.6114C78.2199 -75.5486 83.6669 -94.0564 76.4043 -95.0847C69.1417 -96.1129 27.1551 -103.567 21.7082 -105.624C18.3853 -106.878 12.2752 -102.584 17.8051 -98.1693M146.08 -59.8684C131.615 -60.022 109.754 -53.1457 97.4833 -30.5644M210.081 40.2625C218.834 44.003 225.06 53.5791 225.06 64.8021C225.06 79.2827 214.695 91.0215 201.91 91.0215C198.424 91.0215 195.117 90.1484 192.151 88.5847M210.081 40.2625C199.036 44.59 179.986 60.313 192.151 88.5847M109.994 85.4239C112.036 72.7235 111.083 45.6774 90.9294 39.0969C85.3025 6.98293 89.2175 -15.3537 97.4833 -30.5644M46.4463 -90.9718C29.6309 -92.4754 21.3399 -95.3471 17.8051 -98.1693M17.8051 -98.1693L11.9491 -99.7116C8.24221 -99.1118 2.91634 -96.5241 11.2683 -90.9718C12.6962 -90.0225 14.3921 -89.2 16.2613 -88.489M44.8576 -84.2884C38.4604 -84.2174 25.3247 -85.0415 16.2613 -88.489M16.2613 -88.489L8.09091 -88.489C4.45964 -87.6886 -0.805713 -84.9053 7.1831 -80.1756C15.1719 -75.4458 46.2193 -76.6625 60.7444 -77.8621C48.1106 -48.044 41.9072 7.99347 82.986 -20.5394L97.4833 -30.5644M276.98 -98.3241C282.51 -102.739 276.4 -107.033 273.077 -105.779C267.63 -103.722 225.644 -96.2677 218.381 -95.2395C211.118 -94.2113 216.565 -75.7035 220.651 -59.7663C223.919 -47.0165 223.147 -37.6597 213.615 -45.8854C199.814 -57.9329 167.51 -77.6268 148.706 -60.0233C163.171 -60.1769 185.031 -53.3006 197.302 -30.7193L211.799 -20.6943C252.878 7.83859 246.675 -48.1989 234.041 -78.017C248.566 -76.8174 279.613 -75.6007 287.602 -80.3305C295.591 -85.0603 290.326 -87.8435 286.694 -88.6439L278.524 -88.6439M276.98 -98.3241C273.445 -95.5019 265.154 -92.6303 248.339 -91.1267M276.98 -98.3241L282.836 -99.8665C286.543 -99.2667 291.869 -96.679 283.517 -91.1267C282.089 -90.1774 280.393 -89.3548 278.524 -88.6439M278.524 -88.6439C269.461 -85.1964 256.325 -84.3723 249.928 -84.4433M189.655 -12.4108C188.369 -13.2677 185.389 -13.9532 183.754 -9.84031C181.712 -4.69926 171.045 8.6675 162.875 -0.5864C154.704 -9.8403 152.208 -18.323 152.889 -23.9781C153.569 -29.6333 158.562 -39.4013 166.733 -38.3731M166.733 -38.3731C165.069 -36.231 161.286 -31.8439 161.286 -28.348M166.733 -38.3731C168.548 -39.6583 172.543 -41.4577 173.995 -38.3731C174.708 -36.86 173.883 -35.3073 172.562 -33.7461M172.562 -33.7461C170.517 -31.3289 167.284 -28.8914 166.733 -26.5487M172.562 -33.7461C176.141 -35.8025 182.62 -37.8076 179.896 -29.3762C176.946 -25.5204 171.045 -24.1324 170.137 -18.58M114.179 8.39048C108.456 5.3922 102.847 -3.07897 103.112 -15.0831M114.179 8.39048C117.491 16.5534 125.264 29.9194 132.894 26.8891C134.656 26.2805 136.37 25.2704 135.2 22.1481C132.894 15.9949 129.623 19.2569 122.879 10.7424M114.179 8.39048C117.036 9.88764 120.112 10.5693 122.879 10.7424M122.879 10.7424C124.478 10.8424 125.974 10.7725 127.264 10.592C131.735 10.6908 137.106 7.68495 138.515 1.77476C138.884 -0.48895 138.391 -4.29562 133.47 -1.41261M133.47 -1.41261C132.111 0.837742 127.664 4.61287 120.745 1.71061M133.47 -1.41261C135.496 -4.93019 135.681 -11.9654 131.954 -11.9654C127.264 -11.9654 129.708 -4.73612 127.392 -4.73612C127.366 -8.54388 125.999 -16.439 120.745 -17.5574M156.52 70.9711C159.471 68.3149 164.918 62.6426 163.102 61.2031C160.832 59.4037 160.152 62.4883 156.52 70.9711ZM142.448 70.9711C139.498 68.3149 134.051 62.6426 135.867 61.2031C138.136 59.4037 138.817 62.4883 142.448 70.9711ZM204.49 66.5189C207.995 57.4084 214.934 52.0453 219.99 54.5402C225.046 57.0351 226.304 66.4432 222.8 75.5537C219.296 84.6643 212.356 90.0274 207.3 87.5325C202.244 85.0376 200.986 75.6295 204.49 66.5189ZM94.344 68.061C90.8396 58.9504 83.8999 53.5873 78.8438 56.0822C73.7877 58.5771 72.5298 67.9852 76.0342 77.0958C79.5386 86.2064 86.4782 91.5694 91.5344 89.0745C96.5905 86.5796 97.8484 77.1716 94.344 68.061ZM149.07 50.4079C129.684 49.854 129.129 40.2414 149.07 40.2414C169.011 41.0234 168.455 50.9618 149.07 50.4079Z" stroke="#F46B1E" stroke-width="6" stroke-linecap="round" stroke-linejoin="round"/>
<path d="M160.27 135.799C161.011 138.866 159.675 145 148.408 145C137.14 145 134.348 142.973 134.348 135.799C134.348 121.487 151.224 128.336 148.408 110.752M148.408 100.018L148.408 102.063" stroke="#F46B1E" stroke-width="6" stroke-linecap="round" stroke-linejoin="round"/>
</svg>
